<svg id="Layer_1" data-name="Layer 1" xmlns="http://www.w3.org/2000/svg" viewBox="0 0 161.62 161.62"><defs><style>.cls-1{fill:#fff;}.cls-2{fill:#333;}.cls-3{fill:#f2f2f2;}</style></defs><title>MINI_LOGO_FOR_BLACK_BG</title><g id="Layer_6" data-name="Layer 6"><rect class="cls-1" width="161.62" height="161.62" rx="31.02"/></g><path class="cls-2" d="M144.35,34.34"/><path class="cls-2" d="M144.35,34.34"/><path class="cls-3" d="M71.13,54.31V52C71.12,52.78,71.11,53.55,71.13,54.31Z"/><path class="cls-3" d="M71.16,52l.33-3.27A29.68,29.68,0,0,0,71.16,52Z"/><g id="Layer_5" data-name="Layer 5"><path class="cls-3" d="M71.16,52l.33-3.27A29.68,29.68,0,0,0,71.16,52Zm17.63,6.55a8.26,8.26,0,0,0,.1,1v-1Z"/></g><path class="cls-3" d="M31,28.55H49.3a9.36,9.36,0,0,1,9.36,9.36h0V62.26H40.38A9.36,9.36,0,0,1,31,52.92h0Z"/><path d="M31,31.55H49.3a9.36,9.36,0,0,1,9.36,9.36h0V65.26H40.38A9.36,9.36,0,0,1,31,55.92h0Z"/><path d="M101.57,96.19h18.3a9.36,9.36,0,0,1,9.36,9.36h0v24.34h-18.3a9.36,9.36,0,0,1-9.36-9.36h0Z"/><g id="MINI_LOGO" data-name="MINI LOGO"><rect x="91.71" y="107.86" width="0.01" height="0.09"/><path d="M74.92,107.86H91.71v-.1Zm49.67-77a33.27,33.27,0,0,0-37-6.29,31,31,0,0,0-10.94,8.22q-7.47,9-7.46,23.23V74.87q1.65.48,3.24,1.11l.49.2.57.25.71.33c.89.43,1.76.91,2.6,1.42l.31.19A34.63,34.63,0,0,1,83.19,83h0l.67.66a34.5,34.5,0,0,1,8.61,14.25v-41q0-12.39,9-12.4a8.93,8.93,0,0,1,6.42,2.59,8.35,8.35,0,0,1,2.67,6.25A8.8,8.8,0,0,1,108,59.69a8.27,8.27,0,0,1-6.19,2.68H96.05V85.73c2.74.28,4.81.43,6.22.43a30.44,30.44,0,0,0,22.43-9.59,31.32,31.32,0,0,0,9.47-22.8,30.85,30.85,0,0,0-9.62-22.9Z"/><path d="M74.92,107.86H91.71v-.1Z"/><path d="M91.71,107.86v-.1l-16.79.1H71V108H59.55v-6.32h9.61a11.52,11.52,0,0,0-1.48-1.8l-.42-.39a11.39,11.39,0,0,0-11.51-2.34l-.42.16q-.4.16-.81.36a3.48,3.48,0,0,0-.43.22,11.58,11.58,0,0,0-2.67,2l-.4.41-.71.87-.25.36c-.15.22-.3.45-.43.68s-.16.28-.23.42-.15.28-.22.43-.08.18-.11.27a1.07,1.07,0,0,0-.1.22l-.13.3a1.14,1.14,0,0,1-.13.35c0,.11-.13.36-.18.54s-.07.26-.11.39h0c0,.15-.07.3-.1.44v.23h0a4.71,4.71,0,0,1-.08.5c0,.19-.05.38-.07.56V108a11.82,11.82,0,0,0,.15,1.88,2.47,2.47,0,0,0,.11.54h0c.06.27.13.52.2.78a8.56,8.56,0,0,0,.29.85c.11.28.12.3.19.46s.12.29.19.44.14.29.22.43a11.28,11.28,0,0,0,2,2.74c.17.17.35.34.52.49s.35.3.54.44.38.29.58.42l.58.37a1.27,1.27,0,0,0,.22.13l.23.13.49.25.27.12a11.22,11.22,0,0,0,4.7,1h.57a7.87,7.87,0,0,0,1.17-.12.65.65,0,0,0,.33-.06l.35-.07.48-.11.39-.12H63l.46-.15.52-.2.52-.23a2.92,2.92,0,0,0,.5-.25l.25-.13a1.81,1.81,0,0,0,.33-.2,4,4,0,0,0,.49-.3l.46-.33c.29-.22.57-.44.84-.69h0l.38-.34h0A11.17,11.17,0,0,0,70,112.94H91.41a30.43,30.43,0,0,1-.92,4.13,32.14,32.14,0,0,1-8,13.57l-.14.14a31.76,31.76,0,0,1-5.69,4.52l-.68.41c-.23.13-.47.26-.69.4l-.7.37A32.57,32.57,0,0,1,48.15,138l-.57-.22-.51-.21A32.57,32.57,0,0,1,29.93,120.4l-.15-.35a32.64,32.64,0,0,1-.29-23.51c.17-.46.36-.92.55-1.36l.21-.48a31.55,31.55,0,0,1,6.55-9.52A31.94,31.94,0,0,1,45.65,79l.71-.33.58-.26.48-.2a32.72,32.72,0,0,1,21.74-.89c.84.26,1.69.56,2.51.89l.48.2.58.26.71.33a32,32,0,0,1,8.8,6.27h0a32.1,32.1,0,0,1,9.38,20.34q.09,1.14.09,2.28Z"/><rect x="44.45" y="101.63" width="15.1" height="6.32"/></g></svg>