<?xml version="1.0" encoding="utf-8"?>
<!-- Generator: Adobe Illustrator 24.0.1, SVG Export Plug-In . SVG Version: 6.00 Build 0)  -->
<svg version="1.1" id="Layer_1" xmlns="http://www.w3.org/2000/svg" xmlns:xlink="http://www.w3.org/1999/xlink" x="0px" y="0px"
	 viewBox="0 0 161.6 161.6" style="enable-background:new 0 0 161.6 161.6;" xml:space="preserve">
<style type="text/css">
	.st0{fill:#F2F2F2;}
	.st1{fill:#FFA500;}
</style>
<title>projease_logo-mini-black</title>
<path class="st0" d="M71.1,54.3c0,0.7,0,1.5,0,2.2V52C71.1,52.8,71.1,53.5,71.1,54.3z"/>
<path d="M128.9,58.6c0.2-1.7,0.3-3.5,0.3-5.2c0.1-5.3-1.2-10.6-3.7-15.2c-2.4-4.3-5.9-7.8-10.2-10.1c-4.6-2.4-9.7-3.6-14.9-3.5
	c-5.3-0.1-10.5,1.1-15.2,3.6c-4.4,2.4-8,6-10.3,10.4c-1.7,3.2-2.8,6.6-3.3,10.2L71.2,52v23.4h-12c-3.6,0-7.2,0.6-10.6,1.9
	c-0.6,0.2-1.2,0.4-1.7,0.7c-3.7,1.6-6.9,4.1-9.5,7.2c-2.5,3-4.3,6.5-5.2,10.3h0.1c-0.5,1.8-0.8,3.6-1,5.5c-0.2,1.4-0.2,2.8-0.3,4.3
	c-0.1,5.5,1.2,10.9,3.7,15.8c2.4,4.4,6,8,10.4,10.4c4.6,2.4,9.7,3.7,14.9,3.6h0.8c4.9-0.1,9.8-1.3,14.2-3.6c4.4-2.4,7.9-6,10.3-10.4
	c1-1.9,1.8-3.9,2.4-6l1.3-9.7V82c7.3,2.7,15.2,2.7,22.6,0.2c0.6-0.2,1.2-0.4,1.7-0.7c3.7-1.6,6.9-4.1,9.5-7.2
	c2.5-3,4.3-6.5,5.2-10.3h-19c-1.7,3.7-4.8,5.6-9.2,5.6c-2.8,0.1-5.5-0.9-7.5-2.9c-2-1.9-3.2-4.5-3.4-7.3c0-0.3-0.1-0.7-0.1-1
	L128.9,58.6z M92.7,41.4c2.1-1.7,4.8-2.7,7.5-2.6c2.8-0.1,5.6,0.9,7.8,2.7c2.1,1.8,3.2,4.5,3.1,7.3H88.9
	C89.2,45.9,90.5,43.3,92.7,41.4z M71.5,109.2c0,5.6-4.5,10.2-10.2,10.2h-2.7c-5.6,0-10.2-4.5-10.2-10.1l0,0V99.2
	c0-5.6,4.5-10.1,10.1-10.1l0,0h2.7c5.6,0,10.1,4.5,10.2,10.1l0,0L71.5,109.2L71.5,109.2z"/>
<path class="st0" d="M71.2,52l0.3-3.3C71.3,49.8,71.2,50.9,71.2,52z"/>
<g id="Layer_5">
	<path class="st0" d="M71.2,52l0.3-3.3C71.3,49.8,71.2,50.9,71.2,52z M88.8,58.5c0,0.3,0.1,0.7,0.1,1L88.8,58.5L88.8,58.5z"/>
</g>
<path d="M31,28.5h18.3c5.2,0,9.4,4.2,9.4,9.4l0,0v24.3l0,0H40.4c-5.2,0-9.4-4.2-9.4-9.3l0,0L31,28.5L31,28.5z"/>
<path d="M101.6,96.2h18.3c5.2,0,9.4,4.2,9.4,9.4l0,0v24.3l0,0H111c-5.2,0-9.4-4.2-9.4-9.4l0,0C101.6,120.5,101.6,96.2,101.6,96.2z"
	/>
<path class="st1" d="M59.6,46c-8.3,0.1-15,6.1-15,13.5c0-7.4-6.7-13.4-15-13.5c8.3-0.1,15-6.1,15-13.5C44.7,39.9,51.4,45.9,59.6,46z
	"/>
<path class="st1" d="M129.6,113c-8.3,0.1-15,6.1-15,13.5c0-7.4-6.7-13.4-15-13.5c8.3-0.1,15-6.1,15-13.5
	C114.7,106.9,121.4,112.9,129.6,113z"/>
</svg>
