<svg xmlns="http://www.w3.org/2000/svg" viewBox="0 0 648.46 232.94"><defs><style>.cls-1{fill:#fff;}.cls-2{fill:orange;}</style></defs><title>LOGO_FOR_BL_MO</title><g id="Layer_1" data-name="Layer 1"><path d="M659.34,446.64h0Z" transform="translate(-388.54 -213.7)"/><path d="M689.7,446.63h0Z" transform="translate(-388.54 -213.7)"/><path d="M689.79,446.64h0Z" transform="translate(-388.54 -213.7)"/><path d="M689.79,446.64h0Z" transform="translate(-388.54 -213.7)"/><path d="M659.34,446.64h0Z" transform="translate(-388.54 -213.7)"/><path d="M659.34,446.64h0Z" transform="translate(-388.54 -213.7)"/></g><g id="E"><path class="cls-1" d="M998.84,361.26a43.38,43.38,0,0,1-6.25.45h-.79C993.47,361.7,995.81,361.55,998.84,361.26Z" transform="translate(-388.54 -213.7)"/><path class="cls-1" d="M1036.94,317.73H992.59v-8.63h13.13a15.72,15.72,0,1,0-5.41,22.32V361c-.45.09-.9.16-1.36.23h-.11c-3,.29-5.37.44-7,.44h-.43q-17.45-.17-30.22-13.11a42.84,42.84,0,0,1-12.95-31.16,42.19,42.19,0,0,1,13-31.33q13-12.78,32-12.77a44.12,44.12,0,0,1,18.61,4.17,41.87,41.87,0,0,1,14.94,11.24Q1036.27,300.11,1036.94,317.73Z" transform="translate(-388.54 -213.7)"/><path class="cls-1" d="M999,361.25l1.36-.14V361C999.86,361.11,999.41,361.18,999,361.25Z" transform="translate(-388.54 -213.7)"/><rect class="cls-1" x="616.62" y="108.25" width="31.84" height="69.39"/></g><g id="S"><path class="cls-1" d="M938.88,273.33v34.33q-6.72,0-9.23,2.57t-3.2,10.15q-2.21,25.19-19.07,35.55-8.94,5.4-25.37,5.4h-4.42v-34.5H879q7.66,0,10.94-3.26t3.79-11.46q.69-13.33,2.43-18.74a27.12,27.12,0,0,1,7.11-10.71q9.36-9.33,26-9.33Z" transform="translate(-388.54 -213.7)"/></g><g id="A"><path class="cls-1" d="M868.88,317V361.2H842.2V317a17.52,17.52,0,1,0-17.51,17.51h8.09V361.2h-8.09A44.19,44.19,0,1,1,868.88,317Z" transform="translate(-388.54 -213.7)"/></g><g id="E-2" data-name="E"><path class="cls-1" d="M723.81,267.57v23.06h38.37v23.15l-38.37.06v18a5.94,5.94,0,0,0,5.93,5.93H767.2v23.71H719.76a24.6,24.6,0,0,1-24.6-24.6v-93h72v23.68Z" transform="translate(-388.54 -213.7)"/></g><g id="J"><path class="cls-1" d="M681.18,243.63v90.28q0,2-.15,3.87-.87,11.78-7.3,17.41-7.46,6.51-20.79,6.52h-9.59V337.78h8a5.27,5.27,0,0,0,5.27-5.27V243.63Z" transform="translate(-388.54 -213.7)"/><path class="cls-2" d="M680.83,225.85a12.13,12.13,0,0,0-12,12.14,12.14,12.14,0,0,0-12-12.14,12.16,12.16,0,0,0,12-12.15A12.15,12.15,0,0,0,680.83,225.85Z" transform="translate(-388.54 -213.7)"/></g><g id="O"><path class="cls-1" d="M627.18,285.8a42.1,42.1,0,0,0-30.95-13q-19.25,0-32.35,12.73t-13.11,31.37a42.42,42.42,0,0,0,13.11,31.29,44.92,44.92,0,0,0,63.13,0,44,44,0,0,0,.17-62.45Zm-31.76,47A15.83,15.83,0,1,1,611.25,317,15.83,15.83,0,0,1,595.42,332.84Z" transform="translate(-388.54 -213.7)"/></g><g id="R"><path class="cls-1" d="M543.48,273.34v27.38h-8q-8.43.11-13.2,3.37h-.16a13.46,13.46,0,0,0-1.5,1.33,4.06,4.06,0,0,0-.45.48,3.71,3.71,0,0,0-.46.53,5.58,5.58,0,0,0-.38.47c-2.1,2.88-3.2,7.06-3.27,12.56,0,.22,0,.44,0,.66v40.55H489.32V273.33h26.76v14.56l.07-.11a15.81,15.81,0,0,1,15.74-14.44Z" transform="translate(-388.54 -213.7)"/></g><g id="P"><path class="cls-1" d="M464.31,286.1q-13-12.78-32-12.77a44.12,44.12,0,0,0-18.61,4.17,41.87,41.87,0,0,0-14.94,11.24Q388.54,301,388.54,320.49v70.84h31.84V321.69q0-16.95,12.26-16.95a12.18,12.18,0,0,1,8.77,3.54,11.43,11.43,0,0,1,3.66,8.55,12.08,12.08,0,0,1-3.54,8.69,11.35,11.35,0,0,1-8.47,3.66h-7.83v31.93c3.75.39,6.58.59,8.51.59q17.72,0,30.65-13.11a42.84,42.84,0,0,0,12.95-31.16A42.19,42.19,0,0,0,464.31,286.1Z" transform="translate(-388.54 -213.7)"/></g></svg>