<svg xmlns="http://www.w3.org/2000/svg" viewBox="0 0 161.62 161.62"><defs><style>.cls-1{fill:#ccc;}.cls-2{fill:#333;}</style></defs><title>projease_logo-mini-white</title><g id="Layer_6" data-name="Layer 6"><rect class="cls-1" width="161.62" height="161.62" rx="31.02"/></g><g id="Layer_4" data-name="Layer 4"><path class="cls-2" d="M345.84,150.89c0,.16,0,.47,0,.89,0-.29,0-.59,0-.89Z" transform="translate(-201.49 -116.55)"/><path class="cls-2" d="M345.84,150.89c0,.16,0,.47,0,.89,0-.29,0-.59,0-.89Z" transform="translate(-201.49 -116.55)"/><path class="cls-2" d="M330.71,169.93A30.5,30.5,0,0,0,327,154.7a25.28,25.28,0,0,0-10.21-10.06,30.84,30.84,0,0,0-14.93-3.53,31.33,31.33,0,0,0-15.24,3.63,25.49,25.49,0,0,0-10.32,10.36,32.45,32.45,0,0,0-3.68,15.76,32.09,32.09,0,0,0,3.73,15.77A25.85,25.85,0,0,0,286.75,197a33.19,33.19,0,0,0,26.18,1.74c.58-.21,1.15-.45,1.71-.7a26.44,26.44,0,0,0,9.49-7.15,26,26,0,0,0,5.23-10.27H310.49c-1.73,3.73-4.8,5.61-9.22,5.61a10.57,10.57,0,0,1-7.52-2.86q-3.06-2.84-3.47-8.25H330.4A44.36,44.36,0,0,0,330.71,169.93Zm-40.33-4.66a11.49,11.49,0,0,1,3.78-7.36,11.23,11.23,0,0,1,7.52-2.59,11.46,11.46,0,0,1,7.78,2.7,9.07,9.07,0,0,1,3.11,7.25Z" transform="translate(-201.49 -116.55)"/><circle class="cls-2" cx="54.31" cy="50.03" r="16.85"/><circle class="cls-2" cx="105.74" cy="105.95" r="16.85"/></g><g id="Layer_5" data-name="Layer 5"><path class="cls-2" d="M232.52,221.76a32.08,32.08,0,0,0,3.74,15.76,25.81,25.81,0,0,0,10.37,10.37,30.91,30.91,0,0,0,14.83,3.63h.75a31,31,0,0,0,14.17-3.62,25.49,25.49,0,0,0,10.32-10.36,28.92,28.92,0,0,0,2.42-6l1.26-9.74v-56.5H272.65V192H260.7a30.44,30.44,0,0,0-10.6,1.88c-.58.21-1.15.45-1.71.7a26.35,26.35,0,0,0-9.49,7.16A25.87,25.87,0,0,0,233.67,212h.11a32.85,32.85,0,0,0-1,5.5A38.79,38.79,0,0,0,232.52,221.76Zm17.49-6a10.14,10.14,0,0,1,10.15-10.14h2.68A10.14,10.14,0,0,1,273,215.79v10a10.16,10.16,0,0,1-10.15,10.16h-2.68A10.15,10.15,0,0,1,250,225.74Z" transform="translate(-201.49 -116.55)"/></g></svg>