<svg id="Layer_1" data-name="Layer 1" xmlns="http://www.w3.org/2000/svg" viewBox="0 0 161.62 161.62"><defs><style>.cls-1{fill:#1a1a1a;}.cls-2{fill:#333;}.cls-3{fill:#f2f2f2;}</style></defs><title>projease_logo-mini-black</title><g id="Layer_6" data-name="Layer 6"><rect class="cls-1" width="161.62" height="161.62" rx="31.02"/></g><path class="cls-2" d="M144.35,34.34v0Z"/><path class="cls-2" d="M144.35,34.34v0Z"/><path class="cls-3" d="M71.13,54.31c0,.74,0,1.48,0,2.23V52C71.12,52.78,71.11,53.55,71.13,54.31Z"/><path class="cls-3" d="M128.91,58.57a45,45,0,0,0,.31-5.19,30.56,30.56,0,0,0-3.71-15.23A25.29,25.29,0,0,0,115.3,28.09a30.8,30.8,0,0,0-14.93-3.53,31.33,31.33,0,0,0-15.24,3.63A25.43,25.43,0,0,0,74.81,38.55a32.22,32.22,0,0,0-3.32,10.2L71.16,52V75.45H59.21a30.4,30.4,0,0,0-10.6,1.88c-.58.21-1.15.45-1.71.7a26.31,26.31,0,0,0-9.49,7.16,25.87,25.87,0,0,0-5.23,10.26h.11a33.05,33.05,0,0,0-1,5.5,40.42,40.42,0,0,0-.26,4.26A32.15,32.15,0,0,0,34.77,121a25.75,25.75,0,0,0,10.37,10.37A30.9,30.9,0,0,0,60,135h.75a31,31,0,0,0,14.17-3.62A25.43,25.43,0,0,0,85.21,121a28.88,28.88,0,0,0,2.42-6l1.26-9.74V82a33.15,33.15,0,0,0,22.55.15c.58-.21,1.15-.45,1.71-.7a26.48,26.48,0,0,0,9.49-7.15,26,26,0,0,0,5.23-10.27H109c-1.73,3.73-4.8,5.61-9.22,5.61a10.53,10.53,0,0,1-7.52-2.86,11.48,11.48,0,0,1-3.37-7.26c0-.32-.08-.65-.1-1ZM92.67,41.36a11.26,11.26,0,0,1,7.52-2.59,11.45,11.45,0,0,1,7.78,2.7,9.09,9.09,0,0,1,3.11,7.25H88.89A11.48,11.48,0,0,1,92.67,41.36ZM71.51,109.24A10.16,10.16,0,0,1,61.36,119.4H58.68a10.14,10.14,0,0,1-10.17-10.13V99.21A10.14,10.14,0,0,1,58.66,89.07h2.69A10.14,10.14,0,0,1,71.51,99.19Z"/><path class="cls-3" d="M71.16,52l.33-3.27A29.68,29.68,0,0,0,71.16,52Z"/><g id="Layer_5" data-name="Layer 5"><path class="cls-3" d="M71.16,52l.33-3.27A29.68,29.68,0,0,0,71.16,52Zm17.63,6.55c0,.34.06.67.1,1v-1Z"/></g><path class="cls-3" d="M31,28.55h18.3a9.36,9.36,0,0,1,9.36,9.36V62.26a0,0,0,0,1,0,0H40.38A9.36,9.36,0,0,1,31,52.89V28.55a0,0,0,0,1,0,0Z"/><path class="cls-3" d="M31,28.55h18.3a9.36,9.36,0,0,1,9.36,9.36V62.26a0,0,0,0,1,0,0H40.38A9.36,9.36,0,0,1,31,52.89V28.55a0,0,0,0,1,0,0Z"/><path class="cls-3" d="M101.57,96.19h18.3a9.36,9.36,0,0,1,9.36,9.36v24.34a0,0,0,0,1,0,0h-18.3a9.36,9.36,0,0,1-9.36-9.36V96.19A0,0,0,0,1,101.57,96.19Z"/></svg>