<svg xmlns="http://www.w3.org/2000/svg" viewBox="0 0 449.58 136.37"><defs><style>.cls-1{fill:#333;}</style></defs><title>svg-projease-logo</title><g id="Layer_4" data-name="Layer 4"><path class="cls-1" d="M288.41,123.8a23.43,23.43,0,0,0-7.77,7.52v-9.64H262.91v57.85h17.73V152.68q0-7.16,3.32-10t10-2.85h4.87V121.06A20.07,20.07,0,0,0,288.41,123.8Z" transform="translate(-192.52 -70.73)"/><path class="cls-1" d="M397.24,180c-2.56,0-6.37,0-11,0-10.55.05-10.91.18-13,0-1.2-.1-11.74-1-18.46-6.28-.21-.16-.41-.33-.61-.5-7.72-6.6-8.35-17.86-8.35-21.37v-.07c0-.29,0-.59,0-.89v-.29a23.18,23.18,0,0,0-.21-3.21,13.33,13.33,0,0,0-3.27-7.47,11.78,11.78,0,0,0-17.15,0q-3.42,3.69-3.43,10.73t3.37,10.68a10.91,10.91,0,0,0,8.45,3.73,11.54,11.54,0,0,0,8.66-3.73,12.28,12.28,0,0,0,.93-1.1c1,4.95,3.31,10.8,8.13,15.18a26.67,26.67,0,0,1-2.32,1.37,32.55,32.55,0,0,1-15.4,3.63,31.94,31.94,0,0,1-15.29-3.63,26.64,26.64,0,0,1-10.68-10.37,31,31,0,0,1-3.88-15.76,30.66,30.66,0,0,1,3.94-15.7,26.69,26.69,0,0,1,10.78-10.42,34.23,34.23,0,0,1,30.68,0A26.71,26.71,0,0,1,360,134.9a29.65,29.65,0,0,1,3.81,12.56c.09,1,.13,2.07.13,3.14,0,.12,0,.24,0,.36s0,.34,0,.75c0,2,.25,7.61,2.35,10.48a10.37,10.37,0,0,0,1.85,1.92,9.5,9.5,0,0,0,3.83,1.66A21.21,21.21,0,0,0,376,166c1.47,0,2.68,0,3.51,0,0-3.24,0-6.48-.05-9.72V106.75h17.73V156.3Z" transform="translate(-192.52 -70.73)"/><path class="cls-1" d="M345.84,150.89c0,.16,0,.47,0,.89,0-.29,0-.59,0-.89Z" transform="translate(-192.52 -70.73)"/><path class="cls-1" d="M345.84,150.89c0,.16,0,.47,0,.89,0-.29,0-.59,0-.89Z" transform="translate(-192.52 -70.73)"/><path class="cls-1" d="M447.82,121V106.75H403.24V180h44.58V165.7H421V149.64h23.74V135.86H421V121Z" transform="translate(-192.52 -70.73)"/><path class="cls-1" d="M573.52,153.14a18.13,18.13,0,0,0-7.1-5.18A91.74,91.74,0,0,0,556,144.69a43.13,43.13,0,0,1-8.24-2.48,4,4,0,0,1-2.65-3.74,3.78,3.78,0,0,1,1.66-3.26,8.08,8.08,0,0,1,4.77-1.19,9.15,9.15,0,0,1,5.86,1.76,7.07,7.07,0,0,1,2.64,4.77h16.38a21,21,0,0,0-7.2-14.31q-6.28-5.38-17.16-5.39a31,31,0,0,0-12.7,2.38,18.5,18.5,0,0,0-8.09,6.48,16,16,0,0,0-2.75,9.07q0,5.91,3,9.39a18,18,0,0,0,7.15,5.08A78.15,78.15,0,0,0,549,156.3a52.08,52.08,0,0,1,8.4,2.65,3.88,3.88,0,0,1,2.59,3.68,4,4,0,0,1-1.81,3.37,8.77,8.77,0,0,1-5.14,1.29,9.91,9.91,0,0,1-6.11-1.86,6.76,6.76,0,0,1-2.8-4.87H526.61a18.59,18.59,0,0,0,3.83,10.1,22.94,22.94,0,0,0,9.34,7.1,33.16,33.16,0,0,0,13.47,2.6,31.34,31.34,0,0,0,12.39-2.28,18.87,18.87,0,0,0,8.19-6.28,15.21,15.21,0,0,0,2.85-9.07Q576.58,156.72,573.52,153.14Z" transform="translate(-192.52 -70.73)"/><path class="cls-1" d="M506.4,127.5q-7.23-6.16-20.32-6.17a52,52,0,0,0-13.41,1.76,33.69,33.69,0,0,0-11.28,5.16l5.85,11.6a25.37,25.37,0,0,1,7.61-3.89,29.09,29.09,0,0,1,9-1.43q6.71,0,10,3t3.25,8.3v.1H484q-8.83,0-14.26,2.13a15.09,15.09,0,0,0-10.43,14.9,15.6,15.6,0,0,0,2.61,8.83,17.78,17.78,0,0,0,7.39,6.23,26.3,26.3,0,0,0,11.39,2.29q7.56,0,12.35-2.93a15,15,0,0,0,5.1-5.05v7.13h15.54V146.77Q513.64,133.67,506.4,127.5ZM497,161.35a10.46,10.46,0,0,1-4.74,5.85,15,15,0,0,1-7.61,1.91,11.06,11.06,0,0,1-6.75-1.86,6,6,0,0,1-2.5-5.05,6.08,6.08,0,0,1,2.18-4.79q2.17-1.92,8-1.92H497Z" transform="translate(-192.52 -70.73)"/><path class="cls-1" d="M642.1,149.67a30.54,30.54,0,0,0-3.68-15.24,25.41,25.41,0,0,0-10.21-10.06,33.62,33.62,0,0,0-30.17.11,25.49,25.49,0,0,0-10.32,10.36A32.45,32.45,0,0,0,584,150.6a32.08,32.08,0,0,0,3.73,15.76,25.88,25.88,0,0,0,10.37,10.37,33.3,33.3,0,0,0,26.18,1.74c.58-.22,1.15-.46,1.71-.71a26.22,26.22,0,0,0,9.49-7.15,25.93,25.93,0,0,0,5.23-10.26H621.88q-2.6,5.6-9.22,5.6a10.61,10.61,0,0,1-7.52-2.85q-3.06-2.85-3.47-8.25h40.12A44.49,44.49,0,0,0,642.1,149.67ZM601.77,145a11.51,11.51,0,0,1,3.78-7.36,11.28,11.28,0,0,1,7.52-2.59,11.46,11.46,0,0,1,7.78,2.7A9.1,9.1,0,0,1,624,145Z" transform="translate(-192.52 -70.73)"/><path class="cls-1" d="M642.1,167.9v39.2H624.32V182.7a30.71,30.71,0,0,0,3.36-1.29A29.93,29.93,0,0,0,642.1,167.9Z" transform="translate(-192.52 -70.73)"/><circle class="cls-1" cx="196.11" cy="16.85" r="16.85"/></g><g id="Layer_5" data-name="Layer 5"><path class="cls-1" d="M250.38,150.61a32.08,32.08,0,0,0-3.74-15.76,25.81,25.81,0,0,0-10.37-10.37,30.91,30.91,0,0,0-14.83-3.63h-.75a30.87,30.87,0,0,0-14.17,3.62,25.49,25.49,0,0,0-10.32,10.36,28.92,28.92,0,0,0-2.42,6l-1.26,9.74v56.5h17.73V180.36H222.2a30.91,30.91,0,0,0,10.6-1.88c.58-.22,1.15-.46,1.71-.71a26.22,26.22,0,0,0,9.49-7.15,25.93,25.93,0,0,0,5.23-10.26h-.11a32.85,32.85,0,0,0,1-5.5A38.92,38.92,0,0,0,250.38,150.61Zm-17.49,6a10.14,10.14,0,0,1-10.15,10.15h-2.68a10.15,10.15,0,0,1-10.15-10.15v-9.95a10.15,10.15,0,0,1,10.15-10.15h2.68a10.14,10.14,0,0,1,10.15,10.15Z" transform="translate(-192.52 -70.73)"/></g></svg>